<svg xmlns="http://www.w3.org/2000/svg" viewBox="0 0 520 700" role="img" aria-label="Bregan wave bag">
<defs>
  <linearGradient id="w" x1="0" x2="1" y1="0" y2="1"><stop stop-color="#ffb53b"/><stop offset=".65" stop-color="#f47a20"/><stop offset="1" stop-color="#ea4f1b"/></linearGradient>
  <linearGradient id="r" x1="0" x2="1"><stop stop-color="#f89a29" stop-opacity=".2"/><stop offset=".55" stop-color="#ef6f1c" stop-opacity=".85"/><stop offset="1" stop-color="#d93636" stop-opacity=".95"/></linearGradient>
  <filter id="s"><feDropShadow dx="0" dy="20" stdDeviation="18" flood-color="#173047" flood-opacity=".18"/></filter>
</defs>
<g filter="url(#s)">
<path d="M88 70Q94 46 124 44H396Q425 45 432 70L424 633Q420 659 392 665H126Q98 660 94 634Z" fill="#fff"/>
<path d="M89 70Q94 46 124 44H396Q425 45 432 70V150H88Z" fill="url(#w)"/>
<path d="M88 149H432" stroke="#333" stroke-width="14"/>
<path d="M88 440C172 395 243 414 317 438C365 454 397 452 432 438V633Q427 659 392 665H126Q98 660 94 634Z" fill="url(#w)"/>
<path d="M88 492C170 441 247 437 327 463C372 478 406 479 432 472" fill="none" stroke="url(#r)" stroke-width="26" stroke-linecap="round" opacity=".68"/>
<path d="M88 525C170 470 248 470 332 498C378 512 408 513 432 508" fill="none" stroke="#e65326" stroke-opacity=".28" stroke-width="12" stroke-linecap="round"/>
<g transform="translate(206 188)">
  <path d="M45 52V30L72 0l32 30v48H64" fill="none" stroke="#3c4145" stroke-width="6"/>
  <text x="0" y="78" font-family="cursive" font-size="56" font-weight="700" fill="#f28a20" transform="rotate(-5 0 78)">Bregan</text>
</g>
<text x="118" y="613" font-family="Arial,sans-serif" font-size="18" font-weight="700" fill="#263747">Net: 25 kg</text>
</g></svg>